<?xml version="1.0" encoding="iso-8859-1"?>
<!-- Uploaded to: SVG Repo, www.svgrepo.com, Generator: SVG Repo Mixer Tools -->
<svg height="800px" width="800px" version="1.1" id="Layer_1" xmlns="http://www.w3.org/2000/svg" xmlns:xlink="http://www.w3.org/1999/xlink" 
	 viewBox="0 0 511.999 511.999" xml:space="preserve">
<path style="fill:#A3875E;" d="M501.407,135.415c0,43.399-30.078,79.77-70.522,89.402c-3.645-14.733-8.8-28.568-15.663-41.253
	c24.08-2.824,42.763-23.303,42.763-48.149c0-26.772-21.705-48.477-48.477-48.477c-24.474,0-44.701,18.126-48.007,41.68
	c-11.997-6.808-25.612-12.303-40.969-16.298c10.245-39.567,46.201-68.803,88.975-68.803
	C460.263,43.516,501.407,84.66,501.407,135.415z"/>
<path style="fill:#FFF3E6;" d="M457.987,135.415c0,24.846-18.684,45.325-42.763,48.149c-12.182-22.504-29.739-41.341-53.72-54.946
	c3.305-23.555,23.533-41.68,48.007-41.68C436.281,86.938,457.987,108.642,457.987,135.415z"/>
<path style="fill:#DBB67E;" d="M430.885,224.817c4.772,19.296,6.95,40.115,6.95,61.831c0,100.424-25.821,181.836-181.836,181.836
	S74.163,387.071,74.163,286.647c0-21.716,2.178-42.533,6.95-61.831c3.645-14.711,8.789-28.545,15.641-41.209
	c12.182-22.525,29.739-41.374,53.742-54.99c11.996-6.808,25.612-12.303,40.969-16.297c18.815-4.881,40.246-7.508,64.534-7.508
	s45.719,2.627,64.534,7.508c15.357,3.995,28.972,9.489,40.969,16.297c23.982,13.605,41.538,32.442,53.72,54.946
	C422.086,196.249,427.241,210.084,430.885,224.817z M256.001,422.732c75.95,0,100.304-37.816,100.304-84.465
	s-44.909-84.465-100.304-84.465s-100.304,37.816-100.304,84.465S180.05,422.732,256.001,422.732z"/>
<path style="fill:#FFF3E6;" d="M256.001,334.161c20.413,0,36.952-10.245,36.952-22.876s-16.539-22.876-36.952-22.876
	s-36.952,10.245-36.952,22.876C219.049,323.916,235.587,334.161,256.001,334.161z M356.303,338.266
	c0,46.649-24.354,84.465-100.304,84.465s-100.304-37.816-100.304-84.465S200.605,253.8,255.999,253.8
	S356.303,291.617,356.303,338.266z"/>
<path style="fill:#6E5B3F;" d="M256.001,288.409c20.413,0,36.952,10.245,36.952,22.876s-16.539,22.876-36.952,22.876
	s-36.952-10.245-36.952-22.876C219.049,298.655,235.587,288.409,256.001,288.409z"/>
<path style="fill:#A3875E;" d="M102.49,43.516c42.775,0,78.73,29.235,88.975,68.803c-15.357,3.995-28.972,9.489-40.969,16.297
	c-3.305-23.555-23.532-41.68-48.006-41.68c-26.772,0-48.477,21.704-48.477,48.477c0,24.803,18.618,45.248,42.632,48.138l0.109,0.055
	c-6.852,12.664-11.997,26.499-15.641,41.209c-40.442-9.633-70.52-46.005-70.52-89.403C10.593,84.66,51.737,43.516,102.49,43.516z"/>
<path style="fill:#FFF3E6;" d="M102.49,86.938c24.474,0,44.701,18.126,48.007,41.68c-24.003,13.616-41.56,32.464-53.742,54.99
	l-0.109-0.055c-24.015-2.89-42.632-23.336-42.632-48.138C54.013,108.642,75.718,86.938,102.49,86.938z"/>
<path d="M22.415,199.394c12.04,15.053,28.202,26.433,46.241,32.764c-3.36,16.839-5.086,35.105-5.086,54.488
	c0,42.443,3.943,96.161,34.688,135.137c30.411,38.552,82.008,57.292,157.741,57.292s127.331-18.74,157.741-57.292
	c30.745-38.976,34.688-92.694,34.688-135.137c0-19.384-1.725-37.649-5.086-54.488c18.039-6.331,34.201-17.712,46.241-32.764
	c14.454-18.072,22.415-40.794,22.415-63.98c0-56.514-45.977-102.49-102.49-102.49c-43.234,0-81.379,27.026-96.11,66.856
	c-17.538-3.687-36.791-5.561-57.4-5.561c-20.607,0-39.859,1.873-57.4,5.561c-14.729-39.829-52.874-66.856-96.108-66.856
	C45.977,32.923,0,78.901,0,135.415C0,158.601,7.961,181.322,22.415,199.394z M91.423,171.663
	c-15.666-4.767-26.816-19.341-26.816-36.249c0-20.89,16.995-37.884,37.884-37.884c16.493,0,30.936,10.793,35.977,25.992
	C119.17,135.82,103.393,151.965,91.423,171.663z M420.577,171.662c-11.971-19.699-27.75-35.844-47.045-48.14
	c5.041-15.198,19.484-25.992,35.977-25.992c20.89,0,37.884,16.995,37.884,37.884C447.394,152.343,436.249,166.905,420.577,171.662z
	 M409.51,54.11c44.831,0,81.304,36.473,81.304,81.304c0,34.374-21.188,64.367-52.621,76.119c-2.218-7.261-4.807-14.225-7.737-20.868
	c22.476-8.503,38.124-30.217,38.124-55.25c0-32.572-26.499-59.07-59.07-59.07c-24.385,0-45.891,15.151-54.755,36.941
	c-6.593-3.05-13.524-5.752-20.769-8.077C346.169,74.673,375.908,54.11,409.51,54.11z M317.866,122.571
	c14.114,3.673,27.037,8.806,38.409,15.259c21.178,12.015,37.859,29.07,49.581,50.686c0.014,0.025,0.029,0.049,0.041,0.074
	c0.002,0.004,0.005,0.008,0.007,0.013c6.246,11.545,11.191,24.586,14.697,38.756l0,0c4.407,17.817,6.641,37.763,6.641,59.288
	c0,57.964-9.294,95.595-30.136,122.017c-26.13,33.125-72.286,49.226-141.108,49.226s-114.978-16.103-141.108-49.226
	c-20.842-26.421-30.136-64.052-30.136-122.017c0-21.523,2.234-41.47,6.64-59.283c3.515-14.189,8.452-27.215,14.676-38.718
	c11.726-21.681,28.43-38.777,49.653-50.815c11.371-6.453,24.293-11.587,38.4-15.257c18.335-4.757,39.151-7.169,61.874-7.169
	S299.54,117.817,317.866,122.571z M102.49,54.11c33.601,0,63.34,20.563,75.523,51.098c-7.244,2.324-14.175,5.027-20.769,8.077
	c-8.863-21.79-30.369-36.941-54.755-36.941c-32.572,0-59.07,26.499-59.07,59.07c0,25.004,15.653,46.737,38.124,55.25
	c-2.926,6.634-5.514,13.6-7.735,20.869c-31.432-11.752-52.621-41.745-52.621-76.119C21.186,90.583,57.659,54.11,102.49,54.11z"/>
<path d="M145.103,338.266c0,28.477,8.359,51.116,24.846,67.288c18.785,18.427,47.736,27.77,86.051,27.77s67.266-9.343,86.051-27.77
	c16.486-16.172,24.846-38.811,24.846-67.288c0-13.693-3.316-26.906-9.856-39.274c-2.735-5.172-9.144-7.148-14.317-4.413
	c-5.172,2.735-7.148,9.144-4.413,14.317c4.91,9.285,7.398,19.166,7.398,29.371c0,49.708-29.345,73.872-89.711,73.872
	s-89.711-24.164-89.711-73.872c0-40.734,40.244-73.872,89.711-73.872c15.702,0,31.153,3.399,44.685,9.833
	c5.281,2.51,11.603,0.264,14.115-5.02c2.512-5.284,0.265-11.604-5.02-14.115c-16.355-7.774-34.952-11.883-53.78-11.883
	C194.851,243.207,145.103,285.85,145.103,338.266z"/>
<path d="M321.811,273.787c-3.94,4.325-3.626,11.025,0.7,14.964c0.554,0.505,1.101,1.015,1.638,1.533
	c2.055,1.976,4.7,2.958,7.341,2.958c2.781,0,5.558-1.088,7.637-3.25c4.055-4.217,3.924-10.924-0.292-14.979
	c-0.676-0.649-1.362-1.291-2.058-1.926C332.45,269.148,325.751,269.461,321.811,273.787z"/>
<path d="M207.201,371.367c-5.366,2.329-7.828,8.568-5.499,13.935c2.329,5.366,8.569,7.83,13.935,5.499l40.363-17.521l40.363,17.521
	c1.374,0.596,2.804,0.879,4.213,0.879c4.091,0,7.989-2.385,9.722-6.378c2.329-5.366-0.132-11.606-5.499-13.935l-38.205-16.585
	v-10.839c21.395-3.305,36.952-16.464,36.952-32.659c0-18.768-20.884-33.469-47.545-33.469s-47.545,14.701-47.545,33.469
	c0,16.195,15.557,29.354,36.952,32.659v10.839L207.201,371.367z M229.642,311.285c0-4.89,10.513-12.283,26.359-12.283
	s26.359,7.393,26.359,12.283s-10.513,12.283-26.359,12.283S229.642,316.176,229.642,311.285z"/>
<path d="M185.939,191.982c-5.851,0-10.593,4.743-10.593,10.593v10.956c0,5.851,4.743,10.593,10.593,10.593
	s10.593-4.743,10.593-10.593v-10.956C196.532,196.725,191.789,191.982,185.939,191.982z"/>
<path d="M326.061,224.125c5.851,0,10.593-4.743,10.593-10.593v-10.956c0-5.851-4.743-10.593-10.593-10.593
	s-10.593,4.743-10.593,10.593v10.956C315.468,219.382,320.211,224.125,326.061,224.125z"/>
</svg>